<svg xmlns="http://www.w3.org/2000/svg" width="720" height="280" viewBox="0 0 720 280"><rect width="720" height="280" fill="#0d1117" rx="6"/><text x="16" y="22" fill="#8b949e" font-family="system-ui,sans-serif" font-size="12">Closest to triggering a trade (% the price must still move)</text><text x="12" y="47" fill="#c9d1d9" font-family="system-ui,sans-serif" font-size="12">KSM</text><text x="58" y="47" fill="#8b949e" font-family="system-ui,sans-serif" font-size="10">LONG</text><rect x="90" y="37" width="178.2" height="13" rx="2" fill="#d29922" opacity="0.85"/><text x="275.2" y="47" fill="#8b949e" font-family="system-ui,sans-serif" font-size="11">0.62%</text><text x="12" y="69" fill="#c9d1d9" font-family="system-ui,sans-serif" font-size="12">BTC</text><text x="58" y="69" fill="#8b949e" font-family="system-ui,sans-serif" font-size="10">LONG</text><rect x="90" y="59" width="201.2" height="13" rx="2" fill="#d29922" opacity="0.85"/><text x="298.2" y="69" fill="#8b949e" font-family="system-ui,sans-serif" font-size="11">0.70%</text><text x="12" y="91" fill="#c9d1d9" font-family="system-ui,sans-serif" font-size="12">BAT</text><text x="58" y="91" fill="#8b949e" font-family="system-ui,sans-serif" font-size="10">LONG</text><rect x="90" y="81" width="298.9" height="13" rx="2" fill="#388bfd" opacity="0.85"/><text x="395.9" y="91" fill="#8b949e" font-family="system-ui,sans-serif" font-size="11">1.04%</text><text x="12" y="113" fill="#c9d1d9" font-family="system-ui,sans-serif" font-size="12">ONT</text><text x="58" y="113" fill="#8b949e" font-family="system-ui,sans-serif" font-size="10">LONG</text><rect x="90" y="103" width="339.2" height="13" rx="2" fill="#388bfd" opacity="0.85"/><text x="436.2" y="113" fill="#8b949e" font-family="system-ui,sans-serif" font-size="11">1.18%</text><text x="12" y="135" fill="#c9d1d9" font-family="system-ui,sans-serif" font-size="12">ADA</text><text x="58" y="135" fill="#8b949e" font-family="system-ui,sans-serif" font-size="10">LONG</text><rect x="90" y="125" width="448.4" height="13" rx="2" fill="#388bfd" opacity="0.85"/><text x="545.4" y="135" fill="#8b949e" font-family="system-ui,sans-serif" font-size="11">1.56%</text><text x="12" y="157" fill="#c9d1d9" font-family="system-ui,sans-serif" font-size="12">MANA</text><text x="58" y="157" fill="#8b949e" font-family="system-ui,sans-serif" font-size="10">LONG</text><rect x="90" y="147" width="451.3" height="13" rx="2" fill="#388bfd" opacity="0.85"/><text x="548.3" y="157" fill="#8b949e" font-family="system-ui,sans-serif" font-size="11">1.57%</text><text x="12" y="179" fill="#c9d1d9" font-family="system-ui,sans-serif" font-size="12">BNB</text><text x="58" y="179" fill="#8b949e" font-family="system-ui,sans-serif" font-size="10">LONG</text><rect x="90" y="169" width="454.1" height="13" rx="2" fill="#388bfd" opacity="0.85"/><text x="551.1" y="179" fill="#8b949e" font-family="system-ui,sans-serif" font-size="11">1.58%</text><text x="12" y="201" fill="#c9d1d9" font-family="system-ui,sans-serif" font-size="12">ATOM</text><text x="58" y="201" fill="#8b949e" font-family="system-ui,sans-serif" font-size="10">LONG</text><rect x="90" y="191" width="459.9" height="13" rx="2" fill="#388bfd" opacity="0.85"/><text x="556.9" y="201" fill="#8b949e" font-family="system-ui,sans-serif" font-size="11">1.60%</text><text x="12" y="223" fill="#c9d1d9" font-family="system-ui,sans-serif" font-size="12">ETH</text><text x="58" y="223" fill="#8b949e" font-family="system-ui,sans-serif" font-size="10">LONG</text><rect x="90" y="213" width="474.3" height="13" rx="2" fill="#388bfd" opacity="0.85"/><text x="571.3" y="223" fill="#8b949e" font-family="system-ui,sans-serif" font-size="11">1.65%</text><text x="12" y="245" fill="#c9d1d9" font-family="system-ui,sans-serif" font-size="12">ENJ</text><text x="58" y="245" fill="#8b949e" font-family="system-ui,sans-serif" font-size="10">LONG</text><rect x="90" y="235" width="480.0" height="13" rx="2" fill="#388bfd" opacity="0.85"/><text x="577.0" y="245" fill="#8b949e" font-family="system-ui,sans-serif" font-size="11">1.67%</text></svg>