<svg xmlns="http://www.w3.org/2000/svg" width="720" height="280" viewBox="0 0 720 280"><rect width="720" height="280" fill="#0d1117" rx="6"/><text x="16" y="22" fill="#8b949e" font-family="system-ui,sans-serif" font-size="12">Closest to triggering a trade (% the price must still move)</text><text x="12" y="47" fill="#c9d1d9" font-family="system-ui,sans-serif" font-size="12">BAT</text><text x="58" y="47" fill="#8b949e" font-family="system-ui,sans-serif" font-size="10">LONG</text><rect x="90" y="37" width="50.4" height="13" rx="2" fill="#d29922" opacity="0.85"/><text x="147.4" y="47" fill="#8b949e" font-family="system-ui,sans-serif" font-size="11">0.25%</text><text x="12" y="69" fill="#c9d1d9" font-family="system-ui,sans-serif" font-size="12">QTUM</text><text x="58" y="69" fill="#8b949e" font-family="system-ui,sans-serif" font-size="10">LONG</text><rect x="90" y="59" width="191.6" height="13" rx="2" fill="#d29922" opacity="0.85"/><text x="288.6" y="69" fill="#8b949e" font-family="system-ui,sans-serif" font-size="11">0.95%</text><text x="12" y="91" fill="#c9d1d9" font-family="system-ui,sans-serif" font-size="12">AVAX</text><text x="58" y="91" fill="#8b949e" font-family="system-ui,sans-serif" font-size="10">LONG</text><rect x="90" y="81" width="359.0" height="13" rx="2" fill="#388bfd" opacity="0.85"/><text x="456.0" y="91" fill="#8b949e" font-family="system-ui,sans-serif" font-size="11">1.78%</text><text x="12" y="113" fill="#c9d1d9" font-family="system-ui,sans-serif" font-size="12">HBAR</text><text x="58" y="113" fill="#8b949e" font-family="system-ui,sans-serif" font-size="10">LONG</text><rect x="90" y="103" width="361.0" height="13" rx="2" fill="#388bfd" opacity="0.85"/><text x="458.0" y="113" fill="#8b949e" font-family="system-ui,sans-serif" font-size="11">1.79%</text><text x="12" y="135" fill="#c9d1d9" font-family="system-ui,sans-serif" font-size="12">STORJ</text><text x="58" y="135" fill="#8b949e" font-family="system-ui,sans-serif" font-size="10">SHORT</text><rect x="90" y="125" width="375.1" height="13" rx="2" fill="#388bfd" opacity="0.85"/><text x="472.1" y="135" fill="#8b949e" font-family="system-ui,sans-serif" font-size="11">1.86%</text><text x="12" y="157" fill="#c9d1d9" font-family="system-ui,sans-serif" font-size="12">BTC</text><text x="58" y="157" fill="#8b949e" font-family="system-ui,sans-serif" font-size="10">LONG</text><rect x="90" y="147" width="419.5" height="13" rx="2" fill="#388bfd" opacity="0.85"/><text x="516.5" y="157" fill="#8b949e" font-family="system-ui,sans-serif" font-size="11">2.08%</text><text x="12" y="179" fill="#c9d1d9" font-family="system-ui,sans-serif" font-size="12">ETH</text><text x="58" y="179" fill="#8b949e" font-family="system-ui,sans-serif" font-size="10">LONG</text><rect x="90" y="169" width="437.6" height="13" rx="2" fill="#388bfd" opacity="0.85"/><text x="534.6" y="179" fill="#8b949e" font-family="system-ui,sans-serif" font-size="11">2.17%</text><text x="12" y="201" fill="#c9d1d9" font-family="system-ui,sans-serif" font-size="12">IOTA</text><text x="58" y="201" fill="#8b949e" font-family="system-ui,sans-serif" font-size="10">LONG</text><rect x="90" y="191" width="455.8" height="13" rx="2" fill="#388bfd" opacity="0.85"/><text x="552.8" y="201" fill="#8b949e" font-family="system-ui,sans-serif" font-size="11">2.26%</text><text x="12" y="223" fill="#c9d1d9" font-family="system-ui,sans-serif" font-size="12">ALGO</text><text x="58" y="223" fill="#8b949e" font-family="system-ui,sans-serif" font-size="10">LONG</text><rect x="90" y="213" width="461.8" height="13" rx="2" fill="#388bfd" opacity="0.85"/><text x="558.8" y="223" fill="#8b949e" font-family="system-ui,sans-serif" font-size="11">2.29%</text><text x="12" y="245" fill="#c9d1d9" font-family="system-ui,sans-serif" font-size="12">COMP</text><text x="58" y="245" fill="#8b949e" font-family="system-ui,sans-serif" font-size="10">LONG</text><rect x="90" y="235" width="480.0" height="13" rx="2" fill="#388bfd" opacity="0.85"/><text x="577.0" y="245" fill="#8b949e" font-family="system-ui,sans-serif" font-size="11">2.38%</text></svg>