<svg xmlns="http://www.w3.org/2000/svg" width="720" height="280" viewBox="0 0 720 280"><rect width="720" height="280" fill="#0d1117" rx="6"/><text x="16" y="22" fill="#8b949e" font-family="system-ui,sans-serif" font-size="12">Closest to triggering a trade (% the price must still move)</text><text x="12" y="47" fill="#c9d1d9" font-family="system-ui,sans-serif" font-size="12">FIL</text><text x="58" y="47" fill="#8b949e" font-family="system-ui,sans-serif" font-size="10">LONG</text><rect x="90" y="37" width="2.0" height="13" rx="2" fill="#d29922" opacity="0.85"/><text x="99.0" y="47" fill="#8b949e" font-family="system-ui,sans-serif" font-size="11">0.00%</text><text x="12" y="69" fill="#c9d1d9" font-family="system-ui,sans-serif" font-size="12">BAT</text><text x="58" y="69" fill="#8b949e" font-family="system-ui,sans-serif" font-size="10">LONG</text><rect x="90" y="59" width="2.0" height="13" rx="2" fill="#2ea043" opacity="0.85"/><text x="99.0" y="69" fill="#8b949e" font-family="system-ui,sans-serif" font-size="11">0.00% &#183; READY</text><text x="12" y="91" fill="#c9d1d9" font-family="system-ui,sans-serif" font-size="12">EGLD</text><text x="58" y="91" fill="#8b949e" font-family="system-ui,sans-serif" font-size="10">SHORT</text><rect x="90" y="81" width="2.0" height="13" rx="2" fill="#2ea043" opacity="0.85"/><text x="99.0" y="91" fill="#8b949e" font-family="system-ui,sans-serif" font-size="11">0.00% &#183; READY</text><text x="12" y="113" fill="#c9d1d9" font-family="system-ui,sans-serif" font-size="12">AXS</text><text x="58" y="113" fill="#8b949e" font-family="system-ui,sans-serif" font-size="10">LONG</text><rect x="90" y="103" width="100.6" height="13" rx="2" fill="#d29922" opacity="0.85"/><text x="197.6" y="113" fill="#8b949e" font-family="system-ui,sans-serif" font-size="11">0.26%</text><text x="12" y="135" fill="#c9d1d9" font-family="system-ui,sans-serif" font-size="12">CELO</text><text x="58" y="135" fill="#8b949e" font-family="system-ui,sans-serif" font-size="10">LONG</text><rect x="90" y="125" width="154.8" height="13" rx="2" fill="#d29922" opacity="0.85"/><text x="251.8" y="135" fill="#8b949e" font-family="system-ui,sans-serif" font-size="11">0.40%</text><text x="12" y="157" fill="#c9d1d9" font-family="system-ui,sans-serif" font-size="12">LTC</text><text x="58" y="157" fill="#8b949e" font-family="system-ui,sans-serif" font-size="10">LONG</text><rect x="90" y="147" width="212.9" height="13" rx="2" fill="#d29922" opacity="0.85"/><text x="309.9" y="157" fill="#8b949e" font-family="system-ui,sans-serif" font-size="11">0.55%</text><text x="12" y="179" fill="#c9d1d9" font-family="system-ui,sans-serif" font-size="12">LINK</text><text x="58" y="179" fill="#8b949e" font-family="system-ui,sans-serif" font-size="10">SHORT</text><rect x="90" y="169" width="410.3" height="13" rx="2" fill="#388bfd" opacity="0.85"/><text x="507.3" y="179" fill="#8b949e" font-family="system-ui,sans-serif" font-size="11">1.06%</text><text x="12" y="201" fill="#c9d1d9" font-family="system-ui,sans-serif" font-size="12">COMP</text><text x="58" y="201" fill="#8b949e" font-family="system-ui,sans-serif" font-size="10">SHORT</text><rect x="90" y="191" width="410.3" height="13" rx="2" fill="#388bfd" opacity="0.85"/><text x="507.3" y="201" fill="#8b949e" font-family="system-ui,sans-serif" font-size="11">1.06%</text><text x="12" y="223" fill="#c9d1d9" font-family="system-ui,sans-serif" font-size="12">GRT</text><text x="58" y="223" fill="#8b949e" font-family="system-ui,sans-serif" font-size="10">LONG</text><rect x="90" y="213" width="433.5" height="13" rx="2" fill="#388bfd" opacity="0.85"/><text x="530.5" y="223" fill="#8b949e" font-family="system-ui,sans-serif" font-size="11">1.12%</text><text x="12" y="245" fill="#c9d1d9" font-family="system-ui,sans-serif" font-size="12">CHZ</text><text x="58" y="245" fill="#8b949e" font-family="system-ui,sans-serif" font-size="10">LONG</text><rect x="90" y="235" width="480.0" height="13" rx="2" fill="#388bfd" opacity="0.85"/><text x="577.0" y="245" fill="#8b949e" font-family="system-ui,sans-serif" font-size="11">1.24%</text></svg>