<svg xmlns="http://www.w3.org/2000/svg" width="720" height="210" viewBox="0 0 720 210"><rect width="720" height="210" fill="#0d1117" rx="6"/><text x="16" y="22" fill="#8b949e" font-family="system-ui,sans-serif" font-size="12">Balance over time (paper $)</text><line x1="34" y1="114.5" x2="686" y2="114.5" stroke="#30363d" stroke-dasharray="4 4"/><polygon points="34,176.0 34.0,114.5 47.9,120.2 61.7,128.2 75.6,124.6 89.5,132.3 103.4,140.0 117.2,148.3 131.1,133.0 145.0,140.9 158.9,134.1 172.7,142.6 186.6,150.7 200.5,158.7 214.3,166.1 228.2,176.0 242.1,145.4 256.0,131.8 269.8,142.4 283.7,128.2 297.6,93.5 311.4,96.4 325.3,79.3 339.2,65.9 353.1,47.5 366.9,42.1 380.8,34.0 394.7,42.7 408.6,51.7 422.4,60.7 436.3,42.1 450.2,51.1 464.0,58.4 477.9,67.3 491.8,76.0 505.7,83.4 519.5,91.5 533.4,100.1 547.3,106.9 561.1,116.6 575.0,83.9 588.9,70.1 602.8,70.6 616.6,65.2 630.5,72.1 644.4,80.2 658.3,87.8 672.1,81.9 686.0,89.3 686.0,176.0" fill="rgba(46,160,67,.15)"/><polyline points="34.0,114.5 47.9,120.2 61.7,128.2 75.6,124.6 89.5,132.3 103.4,140.0 117.2,148.3 131.1,133.0 145.0,140.9 158.9,134.1 172.7,142.6 186.6,150.7 200.5,158.7 214.3,166.1 228.2,176.0 242.1,145.4 256.0,131.8 269.8,142.4 283.7,128.2 297.6,93.5 311.4,96.4 325.3,79.3 339.2,65.9 353.1,47.5 366.9,42.1 380.8,34.0 394.7,42.7 408.6,51.7 422.4,60.7 436.3,42.1 450.2,51.1 464.0,58.4 477.9,67.3 491.8,76.0 505.7,83.4 519.5,91.5 533.4,100.1 547.3,106.9 561.1,116.6 575.0,83.9 588.9,70.1 602.8,70.6 616.6,65.2 630.5,72.1 644.4,80.2 658.3,87.8 672.1,81.9 686.0,89.3" fill="none" stroke="#2ea043" stroke-width="2" stroke-linejoin="round"/><circle cx="686.0" cy="89.3" r="3.5" fill="#2ea043"/><text x="34" y="200" fill="#8b949e" font-family="system-ui,sans-serif" font-size="11">47 trades &#183; $20.00 &#8594; $20.6329</text></svg>