<svg xmlns="http://www.w3.org/2000/svg" width="720" height="280" viewBox="0 0 720 280"><rect width="720" height="280" fill="#0d1117" rx="6"/><text x="16" y="22" fill="#8b949e" font-family="system-ui,sans-serif" font-size="12">Closest to triggering a trade (% the price must still move)</text><text x="12" y="47" fill="#c9d1d9" font-family="system-ui,sans-serif" font-size="12">CELO</text><text x="58" y="47" fill="#8b949e" font-family="system-ui,sans-serif" font-size="10">LONG</text><rect x="90" y="37" width="36.4" height="13" rx="2" fill="#d29922" opacity="0.85"/><text x="133.4" y="47" fill="#8b949e" font-family="system-ui,sans-serif" font-size="11">0.15%</text><text x="12" y="69" fill="#c9d1d9" font-family="system-ui,sans-serif" font-size="12">ALGO</text><text x="58" y="69" fill="#8b949e" font-family="system-ui,sans-serif" font-size="10">LONG</text><rect x="90" y="59" width="172.1" height="13" rx="2" fill="#d29922" opacity="0.85"/><text x="269.1" y="69" fill="#8b949e" font-family="system-ui,sans-serif" font-size="11">0.71%</text><text x="12" y="91" fill="#c9d1d9" font-family="system-ui,sans-serif" font-size="12">FIL</text><text x="58" y="91" fill="#8b949e" font-family="system-ui,sans-serif" font-size="10">LONG</text><rect x="90" y="81" width="254.5" height="13" rx="2" fill="#388bfd" opacity="0.85"/><text x="351.5" y="91" fill="#8b949e" font-family="system-ui,sans-serif" font-size="11">1.05%</text><text x="12" y="113" fill="#c9d1d9" font-family="system-ui,sans-serif" font-size="12">UNI</text><text x="58" y="113" fill="#8b949e" font-family="system-ui,sans-serif" font-size="10">LONG</text><rect x="90" y="103" width="346.7" height="13" rx="2" fill="#388bfd" opacity="0.85"/><text x="443.7" y="113" fill="#8b949e" font-family="system-ui,sans-serif" font-size="11">1.43%</text><text x="12" y="135" fill="#c9d1d9" font-family="system-ui,sans-serif" font-size="12">HBAR</text><text x="58" y="135" fill="#8b949e" font-family="system-ui,sans-serif" font-size="10">SHORT</text><rect x="90" y="125" width="366.1" height="13" rx="2" fill="#388bfd" opacity="0.85"/><text x="463.1" y="135" fill="#8b949e" font-family="system-ui,sans-serif" font-size="11">1.51%</text><text x="12" y="157" fill="#c9d1d9" font-family="system-ui,sans-serif" font-size="12">ICP</text><text x="58" y="157" fill="#8b949e" font-family="system-ui,sans-serif" font-size="10">LONG</text><rect x="90" y="147" width="370.9" height="13" rx="2" fill="#388bfd" opacity="0.85"/><text x="467.9" y="157" fill="#8b949e" font-family="system-ui,sans-serif" font-size="11">1.53%</text><text x="12" y="179" fill="#c9d1d9" font-family="system-ui,sans-serif" font-size="12">DOGE</text><text x="58" y="179" fill="#8b949e" font-family="system-ui,sans-serif" font-size="10">SHORT</text><rect x="90" y="169" width="412.1" height="13" rx="2" fill="#388bfd" opacity="0.85"/><text x="509.1" y="179" fill="#8b949e" font-family="system-ui,sans-serif" font-size="11">1.70%</text><text x="12" y="201" fill="#c9d1d9" font-family="system-ui,sans-serif" font-size="12">ATOM</text><text x="58" y="201" fill="#8b949e" font-family="system-ui,sans-serif" font-size="10">SHORT</text><rect x="90" y="191" width="414.5" height="13" rx="2" fill="#388bfd" opacity="0.85"/><text x="511.5" y="201" fill="#8b949e" font-family="system-ui,sans-serif" font-size="11">1.71%</text><text x="12" y="223" fill="#c9d1d9" font-family="system-ui,sans-serif" font-size="12">BNB</text><text x="58" y="223" fill="#8b949e" font-family="system-ui,sans-serif" font-size="10">SHORT</text><rect x="90" y="213" width="475.2" height="13" rx="2" fill="#388bfd" opacity="0.85"/><text x="572.2" y="223" fill="#8b949e" font-family="system-ui,sans-serif" font-size="11">1.96%</text><text x="12" y="245" fill="#c9d1d9" font-family="system-ui,sans-serif" font-size="12">LINK</text><text x="58" y="245" fill="#8b949e" font-family="system-ui,sans-serif" font-size="10">SHORT</text><rect x="90" y="235" width="480.0" height="13" rx="2" fill="#388bfd" opacity="0.85"/><text x="577.0" y="245" fill="#8b949e" font-family="system-ui,sans-serif" font-size="11">1.98%</text></svg>