<svg xmlns="http://www.w3.org/2000/svg" width="720" height="280" viewBox="0 0 720 280"><rect width="720" height="280" fill="#0d1117" rx="6"/><text x="16" y="22" fill="#8b949e" font-family="system-ui,sans-serif" font-size="12">Closest to triggering a trade (% the price must still move)</text><text x="12" y="47" fill="#c9d1d9" font-family="system-ui,sans-serif" font-size="12">ALGO</text><text x="58" y="47" fill="#8b949e" font-family="system-ui,sans-serif" font-size="10">LONG</text><rect x="90" y="37" width="35.0" height="13" rx="2" fill="#d29922" opacity="0.85"/><text x="132.0" y="47" fill="#8b949e" font-family="system-ui,sans-serif" font-size="11">0.23%</text><text x="12" y="69" fill="#c9d1d9" font-family="system-ui,sans-serif" font-size="12">LINK</text><text x="58" y="69" fill="#8b949e" font-family="system-ui,sans-serif" font-size="10">LONG</text><rect x="90" y="59" width="91.4" height="13" rx="2" fill="#d29922" opacity="0.85"/><text x="188.4" y="69" fill="#8b949e" font-family="system-ui,sans-serif" font-size="11">0.60%</text><text x="12" y="91" fill="#c9d1d9" font-family="system-ui,sans-serif" font-size="12">MANA</text><text x="58" y="91" fill="#8b949e" font-family="system-ui,sans-serif" font-size="10">LONG</text><rect x="90" y="81" width="185.9" height="13" rx="2" fill="#388bfd" opacity="0.85"/><text x="282.9" y="91" fill="#8b949e" font-family="system-ui,sans-serif" font-size="11">1.22%</text><text x="12" y="113" fill="#c9d1d9" font-family="system-ui,sans-serif" font-size="12">SKL</text><text x="58" y="113" fill="#8b949e" font-family="system-ui,sans-serif" font-size="10">LONG</text><rect x="90" y="103" width="198.1" height="13" rx="2" fill="#388bfd" opacity="0.85"/><text x="295.1" y="113" fill="#8b949e" font-family="system-ui,sans-serif" font-size="11">1.30%</text><text x="12" y="135" fill="#c9d1d9" font-family="system-ui,sans-serif" font-size="12">SOL</text><text x="58" y="135" fill="#8b949e" font-family="system-ui,sans-serif" font-size="10">LONG</text><rect x="90" y="125" width="292.6" height="13" rx="2" fill="#388bfd" opacity="0.85"/><text x="389.6" y="135" fill="#8b949e" font-family="system-ui,sans-serif" font-size="11">1.92%</text><text x="12" y="157" fill="#c9d1d9" font-family="system-ui,sans-serif" font-size="12">SNX</text><text x="58" y="157" fill="#8b949e" font-family="system-ui,sans-serif" font-size="10">LONG</text><rect x="90" y="147" width="356.6" height="13" rx="2" fill="#388bfd" opacity="0.85"/><text x="453.6" y="157" fill="#8b949e" font-family="system-ui,sans-serif" font-size="11">2.34%</text><text x="12" y="179" fill="#c9d1d9" font-family="system-ui,sans-serif" font-size="12">QTUM</text><text x="58" y="179" fill="#8b949e" font-family="system-ui,sans-serif" font-size="10">LONG</text><rect x="90" y="169" width="373.3" height="13" rx="2" fill="#388bfd" opacity="0.85"/><text x="470.3" y="179" fill="#8b949e" font-family="system-ui,sans-serif" font-size="11">2.45%</text><text x="12" y="201" fill="#c9d1d9" font-family="system-ui,sans-serif" font-size="12">BNB</text><text x="58" y="201" fill="#8b949e" font-family="system-ui,sans-serif" font-size="10">LONG</text><rect x="90" y="191" width="416.0" height="13" rx="2" fill="#388bfd" opacity="0.85"/><text x="513.0" y="201" fill="#8b949e" font-family="system-ui,sans-serif" font-size="11">2.73%</text><text x="12" y="223" fill="#c9d1d9" font-family="system-ui,sans-serif" font-size="12">AXS</text><text x="58" y="223" fill="#8b949e" font-family="system-ui,sans-serif" font-size="10">LONG</text><rect x="90" y="213" width="435.8" height="13" rx="2" fill="#388bfd" opacity="0.85"/><text x="532.8" y="223" fill="#8b949e" font-family="system-ui,sans-serif" font-size="11">2.86%</text><text x="12" y="245" fill="#c9d1d9" font-family="system-ui,sans-serif" font-size="12">BTC</text><text x="58" y="245" fill="#8b949e" font-family="system-ui,sans-serif" font-size="10">LONG</text><rect x="90" y="235" width="480.0" height="13" rx="2" fill="#388bfd" opacity="0.85"/><text x="577.0" y="245" fill="#8b949e" font-family="system-ui,sans-serif" font-size="11">3.15%</text></svg>