<svg xmlns="http://www.w3.org/2000/svg" width="720" height="280" viewBox="0 0 720 280"><rect width="720" height="280" fill="#0d1117" rx="6"/><text x="16" y="22" fill="#8b949e" font-family="system-ui,sans-serif" font-size="12">Closest to triggering a trade (% the price must still move)</text><text x="12" y="47" fill="#c9d1d9" font-family="system-ui,sans-serif" font-size="12">ALGO</text><text x="58" y="47" fill="#8b949e" font-family="system-ui,sans-serif" font-size="10">LONG</text><rect x="90" y="37" width="114.2" height="13" rx="2" fill="#d29922" opacity="0.85"/><text x="211.2" y="47" fill="#8b949e" font-family="system-ui,sans-serif" font-size="11">0.44%</text><text x="12" y="69" fill="#c9d1d9" font-family="system-ui,sans-serif" font-size="12">ICP</text><text x="58" y="69" fill="#8b949e" font-family="system-ui,sans-serif" font-size="10">LONG</text><rect x="90" y="59" width="243.9" height="13" rx="2" fill="#d29922" opacity="0.85"/><text x="340.9" y="69" fill="#8b949e" font-family="system-ui,sans-serif" font-size="11">0.94%</text><text x="12" y="91" fill="#c9d1d9" font-family="system-ui,sans-serif" font-size="12">EGLD</text><text x="58" y="91" fill="#8b949e" font-family="system-ui,sans-serif" font-size="10">LONG</text><rect x="90" y="81" width="256.9" height="13" rx="2" fill="#d29922" opacity="0.85"/><text x="353.9" y="91" fill="#8b949e" font-family="system-ui,sans-serif" font-size="11">0.99%</text><text x="12" y="113" fill="#c9d1d9" font-family="system-ui,sans-serif" font-size="12">UNI</text><text x="58" y="113" fill="#8b949e" font-family="system-ui,sans-serif" font-size="10">LONG</text><rect x="90" y="103" width="303.6" height="13" rx="2" fill="#388bfd" opacity="0.85"/><text x="400.6" y="113" fill="#8b949e" font-family="system-ui,sans-serif" font-size="11">1.17%</text><text x="12" y="135" fill="#c9d1d9" font-family="system-ui,sans-serif" font-size="12">ATOM</text><text x="58" y="135" fill="#8b949e" font-family="system-ui,sans-serif" font-size="10">SHORT</text><rect x="90" y="125" width="391.8" height="13" rx="2" fill="#388bfd" opacity="0.85"/><text x="488.8" y="135" fill="#8b949e" font-family="system-ui,sans-serif" font-size="11">1.51%</text><text x="12" y="157" fill="#c9d1d9" font-family="system-ui,sans-serif" font-size="12">LRC</text><text x="58" y="157" fill="#8b949e" font-family="system-ui,sans-serif" font-size="10">SHORT</text><rect x="90" y="147" width="391.8" height="13" rx="2" fill="#388bfd" opacity="0.85"/><text x="488.8" y="157" fill="#8b949e" font-family="system-ui,sans-serif" font-size="11">1.51%</text><text x="12" y="179" fill="#c9d1d9" font-family="system-ui,sans-serif" font-size="12">HBAR</text><text x="58" y="179" fill="#8b949e" font-family="system-ui,sans-serif" font-size="10">SHORT</text><rect x="90" y="169" width="402.2" height="13" rx="2" fill="#388bfd" opacity="0.85"/><text x="499.2" y="179" fill="#8b949e" font-family="system-ui,sans-serif" font-size="11">1.55%</text><text x="12" y="201" fill="#c9d1d9" font-family="system-ui,sans-serif" font-size="12">AAVE</text><text x="58" y="201" fill="#8b949e" font-family="system-ui,sans-serif" font-size="10">LONG</text><rect x="90" y="191" width="433.3" height="13" rx="2" fill="#388bfd" opacity="0.85"/><text x="530.3" y="201" fill="#8b949e" font-family="system-ui,sans-serif" font-size="11">1.67%</text><text x="12" y="223" fill="#c9d1d9" font-family="system-ui,sans-serif" font-size="12">BAT</text><text x="58" y="223" fill="#8b949e" font-family="system-ui,sans-serif" font-size="10">LONG</text><rect x="90" y="213" width="454.1" height="13" rx="2" fill="#388bfd" opacity="0.85"/><text x="551.1" y="223" fill="#8b949e" font-family="system-ui,sans-serif" font-size="11">1.75%</text><text x="12" y="245" fill="#c9d1d9" font-family="system-ui,sans-serif" font-size="12">DOGE</text><text x="58" y="245" fill="#8b949e" font-family="system-ui,sans-serif" font-size="10">SHORT</text><rect x="90" y="235" width="480.0" height="13" rx="2" fill="#388bfd" opacity="0.85"/><text x="577.0" y="245" fill="#8b949e" font-family="system-ui,sans-serif" font-size="11">1.85%</text></svg>