<svg xmlns="http://www.w3.org/2000/svg" width="720" height="280" viewBox="0 0 720 280"><rect width="720" height="280" fill="#0d1117" rx="6"/><text x="16" y="22" fill="#8b949e" font-family="system-ui,sans-serif" font-size="12">Closest to triggering a trade (% the price must still move)</text><text x="12" y="47" fill="#c9d1d9" font-family="system-ui,sans-serif" font-size="12">NEAR</text><text x="58" y="47" fill="#8b949e" font-family="system-ui,sans-serif" font-size="10">LONG</text><rect x="90" y="37" width="2.0" height="13" rx="2" fill="#2ea043" opacity="0.85"/><text x="99.0" y="47" fill="#8b949e" font-family="system-ui,sans-serif" font-size="11">0.00% &#183; READY</text><text x="12" y="69" fill="#c9d1d9" font-family="system-ui,sans-serif" font-size="12">ATOM</text><text x="58" y="69" fill="#8b949e" font-family="system-ui,sans-serif" font-size="10">LONG</text><rect x="90" y="59" width="176.0" height="13" rx="2" fill="#d29922" opacity="0.85"/><text x="273.0" y="69" fill="#8b949e" font-family="system-ui,sans-serif" font-size="11">0.44%</text><text x="12" y="91" fill="#c9d1d9" font-family="system-ui,sans-serif" font-size="12">CHZ</text><text x="58" y="91" fill="#8b949e" font-family="system-ui,sans-serif" font-size="10">LONG</text><rect x="90" y="81" width="200.0" height="13" rx="2" fill="#d29922" opacity="0.85"/><text x="297.0" y="91" fill="#8b949e" font-family="system-ui,sans-serif" font-size="11">0.50%</text><text x="12" y="113" fill="#c9d1d9" font-family="system-ui,sans-serif" font-size="12">SOL</text><text x="58" y="113" fill="#8b949e" font-family="system-ui,sans-serif" font-size="10">LONG</text><rect x="90" y="103" width="232.0" height="13" rx="2" fill="#d29922" opacity="0.85"/><text x="329.0" y="113" fill="#8b949e" font-family="system-ui,sans-serif" font-size="11">0.58%</text><text x="12" y="135" fill="#c9d1d9" font-family="system-ui,sans-serif" font-size="12">AXS</text><text x="58" y="135" fill="#8b949e" font-family="system-ui,sans-serif" font-size="10">LONG</text><rect x="90" y="125" width="300.0" height="13" rx="2" fill="#d29922" opacity="0.85"/><text x="397.0" y="135" fill="#8b949e" font-family="system-ui,sans-serif" font-size="11">0.75%</text><text x="12" y="157" fill="#c9d1d9" font-family="system-ui,sans-serif" font-size="12">IOTA</text><text x="58" y="157" fill="#8b949e" font-family="system-ui,sans-serif" font-size="10">LONG</text><rect x="90" y="147" width="336.0" height="13" rx="2" fill="#d29922" opacity="0.85"/><text x="433.0" y="157" fill="#8b949e" font-family="system-ui,sans-serif" font-size="11">0.84%</text><text x="12" y="179" fill="#c9d1d9" font-family="system-ui,sans-serif" font-size="12">AVAX</text><text x="58" y="179" fill="#8b949e" font-family="system-ui,sans-serif" font-size="10">LONG</text><rect x="90" y="169" width="440.0" height="13" rx="2" fill="#388bfd" opacity="0.85"/><text x="537.0" y="179" fill="#8b949e" font-family="system-ui,sans-serif" font-size="11">1.10%</text><text x="12" y="201" fill="#c9d1d9" font-family="system-ui,sans-serif" font-size="12">THETA</text><text x="58" y="201" fill="#8b949e" font-family="system-ui,sans-serif" font-size="10">LONG</text><rect x="90" y="191" width="444.0" height="13" rx="2" fill="#388bfd" opacity="0.85"/><text x="541.0" y="201" fill="#8b949e" font-family="system-ui,sans-serif" font-size="11">1.11%</text><text x="12" y="223" fill="#c9d1d9" font-family="system-ui,sans-serif" font-size="12">HBAR</text><text x="58" y="223" fill="#8b949e" font-family="system-ui,sans-serif" font-size="10">LONG</text><rect x="90" y="213" width="472.0" height="13" rx="2" fill="#388bfd" opacity="0.85"/><text x="569.0" y="223" fill="#8b949e" font-family="system-ui,sans-serif" font-size="11">1.18%</text><text x="12" y="245" fill="#c9d1d9" font-family="system-ui,sans-serif" font-size="12">COMP</text><text x="58" y="245" fill="#8b949e" font-family="system-ui,sans-serif" font-size="10">LONG</text><rect x="90" y="235" width="480.0" height="13" rx="2" fill="#388bfd" opacity="0.85"/><text x="577.0" y="245" fill="#8b949e" font-family="system-ui,sans-serif" font-size="11">1.20%</text></svg>