<svg xmlns="http://www.w3.org/2000/svg" width="720" height="280" viewBox="0 0 720 280"><rect width="720" height="280" fill="#0d1117" rx="6"/><text x="16" y="22" fill="#8b949e" font-family="system-ui,sans-serif" font-size="12">Closest to triggering a trade (% the price must still move)</text><text x="12" y="47" fill="#c9d1d9" font-family="system-ui,sans-serif" font-size="12">KSM</text><text x="58" y="47" fill="#8b949e" font-family="system-ui,sans-serif" font-size="10">LONG</text><rect x="90" y="37" width="33.2" height="13" rx="2" fill="#d29922" opacity="0.85"/><text x="130.2" y="47" fill="#8b949e" font-family="system-ui,sans-serif" font-size="11">0.15%</text><text x="12" y="69" fill="#c9d1d9" font-family="system-ui,sans-serif" font-size="12">AXS</text><text x="58" y="69" fill="#8b949e" font-family="system-ui,sans-serif" font-size="10">LONG</text><rect x="90" y="59" width="37.6" height="13" rx="2" fill="#d29922" opacity="0.85"/><text x="134.6" y="69" fill="#8b949e" font-family="system-ui,sans-serif" font-size="11">0.17%</text><text x="12" y="91" fill="#c9d1d9" font-family="system-ui,sans-serif" font-size="12">COMP</text><text x="58" y="91" fill="#8b949e" font-family="system-ui,sans-serif" font-size="10">SHORT</text><rect x="90" y="81" width="79.6" height="13" rx="2" fill="#d29922" opacity="0.85"/><text x="176.6" y="91" fill="#8b949e" font-family="system-ui,sans-serif" font-size="11">0.36%</text><text x="12" y="113" fill="#c9d1d9" font-family="system-ui,sans-serif" font-size="12">LTC</text><text x="58" y="113" fill="#8b949e" font-family="system-ui,sans-serif" font-size="10">LONG</text><rect x="90" y="103" width="146.0" height="13" rx="2" fill="#d29922" opacity="0.85"/><text x="243.0" y="113" fill="#8b949e" font-family="system-ui,sans-serif" font-size="11">0.66%</text><text x="12" y="135" fill="#c9d1d9" font-family="system-ui,sans-serif" font-size="12">BAND</text><text x="58" y="135" fill="#8b949e" font-family="system-ui,sans-serif" font-size="10">LONG</text><rect x="90" y="125" width="303.0" height="13" rx="2" fill="#388bfd" opacity="0.85"/><text x="400.0" y="135" fill="#8b949e" font-family="system-ui,sans-serif" font-size="11">1.37%</text><text x="12" y="157" fill="#c9d1d9" font-family="system-ui,sans-serif" font-size="12">ONT</text><text x="58" y="157" fill="#8b949e" font-family="system-ui,sans-serif" font-size="10">SHORT</text><rect x="90" y="147" width="334.0" height="13" rx="2" fill="#388bfd" opacity="0.85"/><text x="431.0" y="157" fill="#8b949e" font-family="system-ui,sans-serif" font-size="11">1.51%</text><text x="12" y="179" fill="#c9d1d9" font-family="system-ui,sans-serif" font-size="12">BTC</text><text x="58" y="179" fill="#8b949e" font-family="system-ui,sans-serif" font-size="10">SHORT</text><rect x="90" y="169" width="400.4" height="13" rx="2" fill="#388bfd" opacity="0.85"/><text x="497.4" y="179" fill="#8b949e" font-family="system-ui,sans-serif" font-size="11">1.81%</text><text x="12" y="201" fill="#c9d1d9" font-family="system-ui,sans-serif" font-size="12">SUSHI</text><text x="58" y="201" fill="#8b949e" font-family="system-ui,sans-serif" font-size="10">LONG</text><rect x="90" y="191" width="446.8" height="13" rx="2" fill="#388bfd" opacity="0.85"/><text x="543.8" y="201" fill="#8b949e" font-family="system-ui,sans-serif" font-size="11">2.02%</text><text x="12" y="223" fill="#c9d1d9" font-family="system-ui,sans-serif" font-size="12">GRT</text><text x="58" y="223" fill="#8b949e" font-family="system-ui,sans-serif" font-size="10">LONG</text><rect x="90" y="213" width="473.4" height="13" rx="2" fill="#388bfd" opacity="0.85"/><text x="570.4" y="223" fill="#8b949e" font-family="system-ui,sans-serif" font-size="11">2.14%</text><text x="12" y="245" fill="#c9d1d9" font-family="system-ui,sans-serif" font-size="12">SNX</text><text x="58" y="245" fill="#8b949e" font-family="system-ui,sans-serif" font-size="10">LONG</text><rect x="90" y="235" width="480.0" height="13" rx="2" fill="#388bfd" opacity="0.85"/><text x="577.0" y="245" fill="#8b949e" font-family="system-ui,sans-serif" font-size="11">2.17%</text></svg>