<svg xmlns="http://www.w3.org/2000/svg" width="720" height="280" viewBox="0 0 720 280"><rect width="720" height="280" fill="#0d1117" rx="6"/><text x="16" y="22" fill="#8b949e" font-family="system-ui,sans-serif" font-size="12">Closest to triggering a trade (% the price must still move)</text><text x="12" y="47" fill="#c9d1d9" font-family="system-ui,sans-serif" font-size="12">GRT</text><text x="58" y="47" fill="#8b949e" font-family="system-ui,sans-serif" font-size="10">LONG</text><rect x="90" y="37" width="2.0" height="13" rx="2" fill="#d29922" opacity="0.85"/><text x="99.0" y="47" fill="#8b949e" font-family="system-ui,sans-serif" font-size="11">0.00%</text><text x="12" y="69" fill="#c9d1d9" font-family="system-ui,sans-serif" font-size="12">HBAR</text><text x="58" y="69" fill="#8b949e" font-family="system-ui,sans-serif" font-size="10">LONG</text><rect x="90" y="59" width="92.6" height="13" rx="2" fill="#d29922" opacity="0.85"/><text x="189.6" y="69" fill="#8b949e" font-family="system-ui,sans-serif" font-size="11">0.22%</text><text x="12" y="91" fill="#c9d1d9" font-family="system-ui,sans-serif" font-size="12">ONT</text><text x="58" y="91" fill="#8b949e" font-family="system-ui,sans-serif" font-size="10">LONG</text><rect x="90" y="81" width="126.3" height="13" rx="2" fill="#d29922" opacity="0.85"/><text x="223.3" y="91" fill="#8b949e" font-family="system-ui,sans-serif" font-size="11">0.30%</text><text x="12" y="113" fill="#c9d1d9" font-family="system-ui,sans-serif" font-size="12">ADA</text><text x="58" y="113" fill="#8b949e" font-family="system-ui,sans-serif" font-size="10">LONG</text><rect x="90" y="103" width="265.3" height="13" rx="2" fill="#d29922" opacity="0.85"/><text x="362.3" y="113" fill="#8b949e" font-family="system-ui,sans-serif" font-size="11">0.63%</text><text x="12" y="135" fill="#c9d1d9" font-family="system-ui,sans-serif" font-size="12">ANKR</text><text x="58" y="135" fill="#8b949e" font-family="system-ui,sans-serif" font-size="10">LONG</text><rect x="90" y="125" width="265.3" height="13" rx="2" fill="#d29922" opacity="0.85"/><text x="362.3" y="135" fill="#8b949e" font-family="system-ui,sans-serif" font-size="11">0.63%</text><text x="12" y="157" fill="#c9d1d9" font-family="system-ui,sans-serif" font-size="12">COMP</text><text x="58" y="157" fill="#8b949e" font-family="system-ui,sans-serif" font-size="10">LONG</text><rect x="90" y="147" width="294.7" height="13" rx="2" fill="#d29922" opacity="0.85"/><text x="391.7" y="157" fill="#8b949e" font-family="system-ui,sans-serif" font-size="11">0.70%</text><text x="12" y="179" fill="#c9d1d9" font-family="system-ui,sans-serif" font-size="12">QTUM</text><text x="58" y="179" fill="#8b949e" font-family="system-ui,sans-serif" font-size="10">LONG</text><rect x="90" y="169" width="311.6" height="13" rx="2" fill="#d29922" opacity="0.85"/><text x="408.6" y="179" fill="#8b949e" font-family="system-ui,sans-serif" font-size="11">0.74%</text><text x="12" y="201" fill="#c9d1d9" font-family="system-ui,sans-serif" font-size="12">GALA</text><text x="58" y="201" fill="#8b949e" font-family="system-ui,sans-serif" font-size="10">LONG</text><rect x="90" y="191" width="433.7" height="13" rx="2" fill="#388bfd" opacity="0.85"/><text x="530.7" y="201" fill="#8b949e" font-family="system-ui,sans-serif" font-size="11">1.03%</text><text x="12" y="223" fill="#c9d1d9" font-family="system-ui,sans-serif" font-size="12">SAND</text><text x="58" y="223" fill="#8b949e" font-family="system-ui,sans-serif" font-size="10">LONG</text><rect x="90" y="213" width="437.9" height="13" rx="2" fill="#388bfd" opacity="0.85"/><text x="534.9" y="223" fill="#8b949e" font-family="system-ui,sans-serif" font-size="11">1.04%</text><text x="12" y="245" fill="#c9d1d9" font-family="system-ui,sans-serif" font-size="12">CHZ</text><text x="58" y="245" fill="#8b949e" font-family="system-ui,sans-serif" font-size="10">LONG</text><rect x="90" y="235" width="480.0" height="13" rx="2" fill="#388bfd" opacity="0.85"/><text x="577.0" y="245" fill="#8b949e" font-family="system-ui,sans-serif" font-size="11">1.14%</text></svg>