<svg xmlns="http://www.w3.org/2000/svg" width="720" height="280" viewBox="0 0 720 280"><rect width="720" height="280" fill="#0d1117" rx="6"/><text x="16" y="22" fill="#8b949e" font-family="system-ui,sans-serif" font-size="12">Closest to triggering a trade (% the price must still move)</text><text x="12" y="47" fill="#c9d1d9" font-family="system-ui,sans-serif" font-size="12">IOTA</text><text x="58" y="47" fill="#8b949e" font-family="system-ui,sans-serif" font-size="10">SHORT</text><rect x="90" y="37" width="2.0" height="13" rx="2" fill="#d29922" opacity="0.85"/><text x="99.0" y="47" fill="#8b949e" font-family="system-ui,sans-serif" font-size="11">0.00%</text><text x="12" y="69" fill="#c9d1d9" font-family="system-ui,sans-serif" font-size="12">SNX</text><text x="58" y="69" fill="#8b949e" font-family="system-ui,sans-serif" font-size="10">SHORT</text><rect x="90" y="59" width="97.8" height="13" rx="2" fill="#d29922" opacity="0.85"/><text x="194.8" y="69" fill="#8b949e" font-family="system-ui,sans-serif" font-size="11">0.33%</text><text x="12" y="91" fill="#c9d1d9" font-family="system-ui,sans-serif" font-size="12">ADA</text><text x="58" y="91" fill="#8b949e" font-family="system-ui,sans-serif" font-size="10">SHORT</text><rect x="90" y="81" width="103.7" height="13" rx="2" fill="#d29922" opacity="0.85"/><text x="200.7" y="91" fill="#8b949e" font-family="system-ui,sans-serif" font-size="11">0.35%</text><text x="12" y="113" fill="#c9d1d9" font-family="system-ui,sans-serif" font-size="12">ALGO</text><text x="58" y="113" fill="#8b949e" font-family="system-ui,sans-serif" font-size="10">SHORT</text><rect x="90" y="103" width="160.0" height="13" rx="2" fill="#d29922" opacity="0.85"/><text x="257.0" y="113" fill="#8b949e" font-family="system-ui,sans-serif" font-size="11">0.54%</text><text x="12" y="135" fill="#c9d1d9" font-family="system-ui,sans-serif" font-size="12">DOT</text><text x="58" y="135" fill="#8b949e" font-family="system-ui,sans-serif" font-size="10">SHORT</text><rect x="90" y="125" width="284.4" height="13" rx="2" fill="#d29922" opacity="0.85"/><text x="381.4" y="135" fill="#8b949e" font-family="system-ui,sans-serif" font-size="11">0.96%</text><text x="12" y="157" fill="#c9d1d9" font-family="system-ui,sans-serif" font-size="12">NEAR</text><text x="58" y="157" fill="#8b949e" font-family="system-ui,sans-serif" font-size="10">SHORT</text><rect x="90" y="147" width="337.8" height="13" rx="2" fill="#388bfd" opacity="0.85"/><text x="434.8" y="157" fill="#8b949e" font-family="system-ui,sans-serif" font-size="11">1.14%</text><text x="12" y="179" fill="#c9d1d9" font-family="system-ui,sans-serif" font-size="12">ENJ</text><text x="58" y="179" fill="#8b949e" font-family="system-ui,sans-serif" font-size="10">SHORT</text><rect x="90" y="169" width="414.8" height="13" rx="2" fill="#388bfd" opacity="0.85"/><text x="511.8" y="179" fill="#8b949e" font-family="system-ui,sans-serif" font-size="11">1.40%</text><text x="12" y="201" fill="#c9d1d9" font-family="system-ui,sans-serif" font-size="12">RVN</text><text x="58" y="201" fill="#8b949e" font-family="system-ui,sans-serif" font-size="10">SHORT</text><rect x="90" y="191" width="435.6" height="13" rx="2" fill="#388bfd" opacity="0.85"/><text x="532.6" y="201" fill="#8b949e" font-family="system-ui,sans-serif" font-size="11">1.47%</text><text x="12" y="223" fill="#c9d1d9" font-family="system-ui,sans-serif" font-size="12">AXS</text><text x="58" y="223" fill="#8b949e" font-family="system-ui,sans-serif" font-size="10">SHORT</text><rect x="90" y="213" width="474.1" height="13" rx="2" fill="#388bfd" opacity="0.85"/><text x="571.1" y="223" fill="#8b949e" font-family="system-ui,sans-serif" font-size="11">1.60%</text><text x="12" y="245" fill="#c9d1d9" font-family="system-ui,sans-serif" font-size="12">SAND</text><text x="58" y="245" fill="#8b949e" font-family="system-ui,sans-serif" font-size="10">SHORT</text><rect x="90" y="235" width="480.0" height="13" rx="2" fill="#388bfd" opacity="0.85"/><text x="577.0" y="245" fill="#8b949e" font-family="system-ui,sans-serif" font-size="11">1.62%</text></svg>