<svg xmlns="http://www.w3.org/2000/svg" width="720" height="280" viewBox="0 0 720 280"><rect width="720" height="280" fill="#0d1117" rx="6"/><text x="16" y="22" fill="#8b949e" font-family="system-ui,sans-serif" font-size="12">Closest to triggering a trade (% the price must still move)</text><text x="12" y="47" fill="#c9d1d9" font-family="system-ui,sans-serif" font-size="12">AXS</text><text x="58" y="47" fill="#8b949e" font-family="system-ui,sans-serif" font-size="10">SHORT</text><rect x="90" y="37" width="2.0" height="13" rx="2" fill="#d29922" opacity="0.85"/><text x="99.0" y="47" fill="#8b949e" font-family="system-ui,sans-serif" font-size="11">0.00%</text><text x="12" y="69" fill="#c9d1d9" font-family="system-ui,sans-serif" font-size="12">SAND</text><text x="58" y="69" fill="#8b949e" font-family="system-ui,sans-serif" font-size="10">SHORT</text><rect x="90" y="59" width="10.4" height="13" rx="2" fill="#d29922" opacity="0.85"/><text x="107.4" y="69" fill="#8b949e" font-family="system-ui,sans-serif" font-size="11">0.08%</text><text x="12" y="91" fill="#c9d1d9" font-family="system-ui,sans-serif" font-size="12">FIL</text><text x="58" y="91" fill="#8b949e" font-family="system-ui,sans-serif" font-size="10">SHORT</text><rect x="90" y="81" width="161.7" height="13" rx="2" fill="#388bfd" opacity="0.85"/><text x="258.7" y="91" fill="#8b949e" font-family="system-ui,sans-serif" font-size="11">1.25%</text><text x="12" y="113" fill="#c9d1d9" font-family="system-ui,sans-serif" font-size="12">BAT</text><text x="58" y="113" fill="#8b949e" font-family="system-ui,sans-serif" font-size="10">LONG</text><rect x="90" y="103" width="318.3" height="13" rx="2" fill="#388bfd" opacity="0.85"/><text x="415.3" y="113" fill="#8b949e" font-family="system-ui,sans-serif" font-size="11">2.46%</text><text x="12" y="135" fill="#c9d1d9" font-family="system-ui,sans-serif" font-size="12">BNB</text><text x="58" y="135" fill="#8b949e" font-family="system-ui,sans-serif" font-size="10">LONG</text><rect x="90" y="125" width="353.2" height="13" rx="2" fill="#388bfd" opacity="0.85"/><text x="450.2" y="135" fill="#8b949e" font-family="system-ui,sans-serif" font-size="11">2.73%</text><text x="12" y="157" fill="#c9d1d9" font-family="system-ui,sans-serif" font-size="12">ETH</text><text x="58" y="157" fill="#8b949e" font-family="system-ui,sans-serif" font-size="10">LONG</text><rect x="90" y="147" width="442.5" height="13" rx="2" fill="#388bfd" opacity="0.85"/><text x="539.5" y="157" fill="#8b949e" font-family="system-ui,sans-serif" font-size="11">3.42%</text><text x="12" y="179" fill="#c9d1d9" font-family="system-ui,sans-serif" font-size="12">ANKR</text><text x="58" y="179" fill="#8b949e" font-family="system-ui,sans-serif" font-size="10">LONG</text><rect x="90" y="169" width="459.3" height="13" rx="2" fill="#388bfd" opacity="0.85"/><text x="556.3" y="179" fill="#8b949e" font-family="system-ui,sans-serif" font-size="11">3.55%</text><text x="12" y="201" fill="#c9d1d9" font-family="system-ui,sans-serif" font-size="12">BTC</text><text x="58" y="201" fill="#8b949e" font-family="system-ui,sans-serif" font-size="10">LONG</text><rect x="90" y="191" width="460.6" height="13" rx="2" fill="#388bfd" opacity="0.85"/><text x="557.6" y="201" fill="#8b949e" font-family="system-ui,sans-serif" font-size="11">3.56%</text><text x="12" y="223" fill="#c9d1d9" font-family="system-ui,sans-serif" font-size="12">AVAX</text><text x="58" y="223" fill="#8b949e" font-family="system-ui,sans-serif" font-size="10">LONG</text><rect x="90" y="213" width="473.5" height="13" rx="2" fill="#388bfd" opacity="0.85"/><text x="570.5" y="223" fill="#8b949e" font-family="system-ui,sans-serif" font-size="11">3.66%</text><text x="12" y="245" fill="#c9d1d9" font-family="system-ui,sans-serif" font-size="12">STORJ</text><text x="58" y="245" fill="#8b949e" font-family="system-ui,sans-serif" font-size="10">SHORT</text><rect x="90" y="235" width="480.0" height="13" rx="2" fill="#388bfd" opacity="0.85"/><text x="577.0" y="245" fill="#8b949e" font-family="system-ui,sans-serif" font-size="11">3.71%</text></svg>