<svg xmlns="http://www.w3.org/2000/svg" width="720" height="280" viewBox="0 0 720 280"><rect width="720" height="280" fill="#0d1117" rx="6"/><text x="16" y="22" fill="#8b949e" font-family="system-ui,sans-serif" font-size="12">Closest to triggering a trade (% the price must still move)</text><text x="12" y="47" fill="#c9d1d9" font-family="system-ui,sans-serif" font-size="12">BNB</text><text x="58" y="47" fill="#8b949e" font-family="system-ui,sans-serif" font-size="10">SHORT</text><rect x="90" y="37" width="2.0" height="13" rx="2" fill="#d29922" opacity="0.85"/><text x="99.0" y="47" fill="#8b949e" font-family="system-ui,sans-serif" font-size="11">0.00%</text><text x="12" y="69" fill="#c9d1d9" font-family="system-ui,sans-serif" font-size="12">ICP</text><text x="58" y="69" fill="#8b949e" font-family="system-ui,sans-serif" font-size="10">LONG</text><rect x="90" y="59" width="316.6" height="13" rx="2" fill="#388bfd" opacity="0.85"/><text x="413.6" y="69" fill="#8b949e" font-family="system-ui,sans-serif" font-size="11">2.48%</text><text x="12" y="91" fill="#c9d1d9" font-family="system-ui,sans-serif" font-size="12">BTC</text><text x="58" y="91" fill="#8b949e" font-family="system-ui,sans-serif" font-size="10">LONG</text><rect x="90" y="81" width="317.9" height="13" rx="2" fill="#388bfd" opacity="0.85"/><text x="414.9" y="91" fill="#8b949e" font-family="system-ui,sans-serif" font-size="11">2.49%</text><text x="12" y="113" fill="#c9d1d9" font-family="system-ui,sans-serif" font-size="12">ETH</text><text x="58" y="113" fill="#8b949e" font-family="system-ui,sans-serif" font-size="10">LONG</text><rect x="90" y="103" width="361.3" height="13" rx="2" fill="#388bfd" opacity="0.85"/><text x="458.3" y="113" fill="#8b949e" font-family="system-ui,sans-serif" font-size="11">2.83%</text><text x="12" y="135" fill="#c9d1d9" font-family="system-ui,sans-serif" font-size="12">CRV</text><text x="58" y="135" fill="#8b949e" font-family="system-ui,sans-serif" font-size="10">LONG</text><rect x="90" y="125" width="365.1" height="13" rx="2" fill="#388bfd" opacity="0.85"/><text x="462.1" y="135" fill="#8b949e" font-family="system-ui,sans-serif" font-size="11">2.86%</text><text x="12" y="157" fill="#c9d1d9" font-family="system-ui,sans-serif" font-size="12">QTUM</text><text x="58" y="157" fill="#8b949e" font-family="system-ui,sans-serif" font-size="10">SHORT</text><rect x="90" y="147" width="375.3" height="13" rx="2" fill="#388bfd" opacity="0.85"/><text x="472.3" y="157" fill="#8b949e" font-family="system-ui,sans-serif" font-size="11">2.94%</text><text x="12" y="179" fill="#c9d1d9" font-family="system-ui,sans-serif" font-size="12">ATOM</text><text x="58" y="179" fill="#8b949e" font-family="system-ui,sans-serif" font-size="10">SHORT</text><rect x="90" y="169" width="390.6" height="13" rx="2" fill="#388bfd" opacity="0.85"/><text x="487.6" y="179" fill="#8b949e" font-family="system-ui,sans-serif" font-size="11">3.06%</text><text x="12" y="201" fill="#c9d1d9" font-family="system-ui,sans-serif" font-size="12">STORJ</text><text x="58" y="201" fill="#8b949e" font-family="system-ui,sans-serif" font-size="10">SHORT</text><rect x="90" y="191" width="445.5" height="13" rx="2" fill="#388bfd" opacity="0.85"/><text x="542.5" y="201" fill="#8b949e" font-family="system-ui,sans-serif" font-size="11">3.49%</text><text x="12" y="223" fill="#c9d1d9" font-family="system-ui,sans-serif" font-size="12">AAVE</text><text x="58" y="223" fill="#8b949e" font-family="system-ui,sans-serif" font-size="10">LONG</text><rect x="90" y="213" width="472.3" height="13" rx="2" fill="#388bfd" opacity="0.85"/><text x="569.3" y="223" fill="#8b949e" font-family="system-ui,sans-serif" font-size="11">3.70%</text><text x="12" y="245" fill="#c9d1d9" font-family="system-ui,sans-serif" font-size="12">RVN</text><text x="58" y="245" fill="#8b949e" font-family="system-ui,sans-serif" font-size="10">SHORT</text><rect x="90" y="235" width="480.0" height="13" rx="2" fill="#388bfd" opacity="0.85"/><text x="577.0" y="245" fill="#8b949e" font-family="system-ui,sans-serif" font-size="11">3.76%</text></svg>